<svg height="800" width="800" xmlns="http://www.w3.org/2000/svg" viewBox="0 0 381.329 381.329" xml:space="preserve"><path d="m78.864 79.423-24.369-5.431c-2.899-.646-5.259.003-6.382 1.727-.967 1.484-.931 3.59.103 5.929l2.945 6.662c.667 1.355-.291 3.057-.784 3.506-28.44 25.881-44.752 62.701-44.752 101.019 0 45.394 22.483 87.683 60.144 113.125a9.497 9.497 0 0 0 13.191-2.554 9.449 9.449 0 0 0 1.629-5.311 9.493 9.493 0 0 0-4.184-7.879c-32.423-21.905-51.78-58.31-51.78-97.382 0-30.858 12.57-61.144 34.487-83.09.568-.569.872-.613.951-.613.146 0 .358.218.512.486l2.742 6.206c1.146 2.593 2.797 4.021 4.648 4.021 1.814 0 3.47-1.385 4.661-3.898L84.48 90.919c1.158-2.444 1.206-4.997.135-7.188-1.068-2.19-3.111-3.719-5.751-4.308zM375.704 188.493c0-45.394-22.483-87.683-60.145-113.125a9.46 9.46 0 0 0-5.311-1.629 9.492 9.492 0 0 0-7.879 4.183 9.493 9.493 0 0 0 2.554 13.19c32.423 21.904 51.78 58.309 51.78 97.382 0 30.858-12.57 61.144-34.487 83.09-.568.568-.872.613-.951.613-.146 0-.358-.218-.512-.486l-2.742-6.206c-1.146-2.593-2.797-4.021-4.648-4.021-1.814 0-3.47 1.385-4.66 3.898l-11.857 25.027c-1.158 2.444-1.206 4.996-.136 7.186s3.113 3.721 5.753 4.31l24.369 5.431a9.916 9.916 0 0 0 2.142.253c1.903 0 3.41-.703 4.241-1.98.967-1.484.931-3.589-.103-5.928l-2.945-6.662c-.667-1.355.29-3.057.784-3.506 28.441-25.881 44.753-62.702 44.753-101.02zM194.766 79.575c-9.743-3.906-12.559-6.268-12.559-10.534 0-3.414 2.586-7.401 9.874-7.401 6.447 0 11.392 2.542 11.435 2.565a3.604 3.604 0 0 0 1.682.425 3.398 3.398 0 0 0 3.177-2.175l1.771-4.528c.616-1.649-.318-3.087-1.512-3.603-3.97-1.729-11.727-3.065-11.807-3.079-.125-.021-.56-.114-.56-.623l-.024-6.567c0-1.978-1.652-3.588-3.68-3.588h-3.177c-2.025 0-3.677 1.61-3.677 3.59l.008 6.904c0 .529-.573.759-.782.809-9.792 2.332-15.913 9.505-15.913 18.554 0 11.28 9.324 16.378 19.391 20.204 8.048 3.159 11.331 6.363 11.331 11.063 0 5.113-4.649 8.685-11.311 8.685-5.688 0-13.387-3.605-13.463-3.642a3.6 3.6 0 0 0-1.551-.352 3.44 3.44 0 0 0-3.252 2.258l-1.69 4.578c-.602 1.71.324 3.098 1.509 3.715 4.727 2.462 13.876 3.905 14.282 3.968.11.016.667.213.667.721v6.875c0 1.979 1.651 3.588 3.68 3.588h3.283c2.029 0 3.681-1.609 3.681-3.588v-7.234c0-.677.499-.736.602-.761 10.433-2.344 16.859-9.977 16.859-19.561.001-9.846-5.466-16.207-18.274-21.266z"/><path d="M190.665 0c-47.622 0-86.225 38.604-86.225 86.225 0 47.62 38.603 86.227 86.225 86.227 47.62 0 86.225-38.606 86.225-86.227S238.285 0 190.665 0zm0 152.467c-36.586 0-66.241-29.658-66.241-66.242s29.655-66.241 66.241-66.241c36.584 0 66.24 29.657 66.24 66.241s-29.656 66.242-66.24 66.242zM190.666 208.877c-47.623 0-86.226 38.604-86.226 86.225s38.603 86.227 86.226 86.227c47.62 0 86.224-38.605 86.224-86.227-.001-47.621-38.604-86.225-86.224-86.225zm0 152.468c-36.586 0-66.242-29.659-66.242-66.243 0-36.583 29.656-66.241 66.242-66.241 36.583 0 66.239 29.658 66.239 66.241-.001 36.584-29.656 66.243-66.239 66.243z"/><path d="M216.21 314.953a5.095 5.095 0 0 0-7.191-.477c-4.688 4.105-9.708 6.366-15.948 6.366-8.781 0-15.544-4.423-20.191-11.155-.196-.284-.497-.865.503-.865h11.654a5.096 5.096 0 1 0 0-10.192h-15.613c-.844 0-.932-.666-.965-1.002a25.099 25.099 0 0 1-.129-2.526c0-1.013.01-1.509.126-2.491.02-.179.177-1.036 1.218-1.036h17.715a5.097 5.097 0 0 0 0-10.193h-13.381c-1.75 0-.93-1.166-.51-1.723 4.7-6.248 11.17-10.298 19.572-10.298 4.531 0 7.984 1.192 11.877 3.446a5.096 5.096 0 0 0 5.109-8.818c-5.443-3.153-10.662-4.819-16.985-4.819-14.236 0-25.562 8.324-31.373 20.36-.294.608-.606 1.852-1.856 1.852h-6.537a5.097 5.097 0 0 0 0 10.193h4.329c.833 0 .619.719.604.899a27.548 27.548 0 0 0-.099 2.628c0 .915.036 1.822.104 2.721.021.27.149.808-.757.808h-6.534a5.096 5.096 0 1 0 0 10.192h9.097c1.084 0 1.064.583 1.193.872 5.604 12.561 17.208 21.34 31.828 21.34 8.712 0 16.115-3.157 22.663-8.891a5.096 5.096 0 0 0 .477-7.191z"/></svg>